<svg xmlns="http://www.w3.org/2000/svg" width="1925" height="413"><path d="M-3 0h1928v413H-3V0z" fill="#10C0E7"/><path d="M1615.382 29.769c-.374.415-.759.791-1.146 1.117a.437.437 0 0 1-.053.069l-36.507 39.059c-.013.015-.028.027-.042.041l-.013.008a.716.716 0 0 1-.045.031l-.012.008c-.016.008-.033.017-.051.023l-9.891 3.842a.44.44 0 0 1-.459-.086.445.445 0 0 1-.129-.45l2.939-10.369a.479.479 0 0 1 .107-.187l36.502-39.056a.216.216 0 0 1 .038-.036c.306-.422.664-.84 1.069-1.247 1.03-1.035 2.02-1.539 3.027-1.539 1.437 0 2.655 1.031 3.779 2.087.885.83 1.855 1.812 2.169 2.94.331 1.194-.089 2.419-1.282 3.745zm-37.867 38.725c.055.057.112.13.161.218l31.013-33.182-.511-.48-31.081 33.166c.149.061.294.149.418.278zm-2.676-2.707c.406.056.843.199 1.189.525.306.289.496.671.568 1.14l30.934-33.012-1.808-1.701-30.883 33.048zm30.235-33.657l-1.694-1.594-30.9 33.033c.387.034.796.152 1.128.441.322.28.519.667.591 1.158l30.875-33.038zm-36.941 40.684l3.581-1.39c-.679-1.499-1.926-2.121-2.523-2.342l-1.058 3.732zm2.95-8.35a.449.449 0 0 1-.159-.392c.023-.192 0-.334-.058-.39a.248.248 0 0 0-.129-.054l-1.302 4.596c.724.258 2.283 1.011 3.107 2.878l4.405-1.713c.003-.106-.011-.214-.072-.277-.127-.135-.477-.147-.673-.115a.446.446 0 0 1-.515-.513c.125-.726.035-1.237-.267-1.522-.524-.493-1.578-.262-1.588-.26a.444.444 0 0 1-.54-.505c.083-.513.105-1.191-.264-1.514-.42-.367-1.247-.222-1.53-.135a.445.445 0 0 1-.415-.084zm31.308-34.858l-31.108 33.285a1.04 1.04 0 0 1 .331.304l31.118-33.268-.341-.321zm1.089-1.166l-.483.517 2.875 2.703a.425.425 0 0 1 .267.25l2.153 2.025a.442.442 0 0 1 .216.11c.063.06.103.132.124.21l.665.625.417-.447a.443.443 0 0 1-.292-.121l-5.805-5.502a.44.44 0 0 1-.137-.37zm1.299-1.39l-.933 1a.44.44 0 0 1 .38.112l5.807 5.503a.447.447 0 0 1 .135.282l.918-.982c-.019.002-.039.006-.058.006a.449.449 0 0 1-.305-.121l-5.806-5.503a.444.444 0 0 1-.138-.297zm1.332-1.425l-.892.955a.435.435 0 0 1 .307.12l5.808 5.502a.45.45 0 0 1 .136.353l.921-.987c-.01.001-.019.004-.031.004a.443.443 0 0 1-.304-.122l-5.807-5.502a.445.445 0 0 1-.138-.323zm.414-.443c.12-.008.242.03.335.118l5.805 5.503a.434.434 0 0 1 .138.324l.413-.441-6.299-5.923-.392.419zm7.364-1.448c-1.214-1.141-2.169-1.846-3.173-1.846-.759 0-1.544.418-2.4 1.279-.3.302-.575.612-.815.923l6.34 5.962c.297-.264.592-.558.882-.878 2.112-2.349 1.041-3.679-.834-5.44zm.286 5.367s1.523-2.002-.475-4.674c0 0 .951.572 1.142.859 0 0 2.094 1.526-.667 3.815zM344.839 104.404c-.24-.748-.703-2.158-1.205-3.679v-.004a.443.443 0 0 0-.104-.312c-.908-2.744-1.898-5.717-1.913-5.764a1.197 1.197 0 0 0-.091-.186l-.005-.012-.002-.004-26.828-43.544a.445.445 0 0 0-.235-.385l-2.914-4.729-.007-.009-.004-.007c-.453-.724-1.219-1.186-2.093-1.278l-.91-1.479c-.479-.776-1.54-1.033-2.369-.574a1.73 1.73 0 0 0-.837 1.064c-.11.427-.045.867.186 1.241l.901 1.462c-.054.125-.1.254-.133.386-.179.689-.073 1.4.3 2.005l.007.012-1.46.811a.444.444 0 0 0-.16.623l9.535 15.48a.44.44 0 0 0 .587.156l.627-.349a.445.445 0 0 0 .161-.623l-8.057-13.078.469-.26 28.267 45.885a1.017 1.017 0 0 0 .117.159l.012.012c.004.005.008.01.016.017l.011.012 7.403 7.403a.434.434 0 0 0 .54.063.445.445 0 0 0 .188-.515zm-37.854-53.329a.456.456 0 0 0-.204.239l-.826-1.344 1.094-.607.769 1.249-.833.463zm35.571 49.198c-.446.061-.795.216-1.043.47a1.324 1.324 0 0 0-.122.143l-3.901-3.903c.066-.309.265-.934.826-1.384.59-.473 1.437-.647 2.517-.516.205.613.973 2.927 1.723 5.19zm-35.079-51.898c.134-.347.927-2.077 3.435-1.928l2.463 4c-1.35.082-2.238.664-2.77 1.19a4.22 4.22 0 0 0-.63.792l-2.498-4.054zm-.349-1.559c.021-.087.051-.171.086-.252a.448.448 0 0 0 .16-.297c.171-.257.407-.474.696-.636.318-.176.679-.27 1.043-.27.33 0 .648.078.928.217-1.205.131-2.001.659-2.489 1.139a4.031 4.031 0 0 0-.477.569 1.722 1.722 0 0 1 .053-.47zm-.872-2.543a.7.7 0 0 1-.082-.545.83.83 0 0 1 .409-.511c.424-.235.962-.117 1.197.265l.657 1.068a2.994 2.994 0 0 0-1.49.844l-.691-1.121zm4.255 9.026c.173-.405 1.032-2.071 3.409-1.968l26.383 42.824c-1.032-.025-1.882.225-2.535.748a3.184 3.184 0 0 0-.904 1.175l-26.353-42.779zm31.529 48.236a.39.39 0 0 1 .11-.177c.132-.126.374-.2.692-.218.209.63.409 1.239.588 1.784l-1.39-1.389zm618.822 243.63a7.363 7.363 0 0 1-.496.662c-.877 1.041-2.117 1.92-3.903 2.764-1.475.698-3.399 1.423-6.64 2.502-2.951.984-4.895 1.506-6.501 1.748-1.055.158-1.984.196-2.842.115a7.573 7.573 0 0 1-2.872-.837c-2.131-1.136-3.204-3.107-3.825-4.492-.693-1.543-1.267-3.419-1.994-5.794a271.48 271.48 0 0 0-.885-2.856 19.229 19.229 0 0 1-.895-6.435c.067-2.13.484-4.177 1.238-6.085a15.61 15.61 0 0 1 2.556-4.329c.099-.117.2-.233.302-.347a8.622 8.622 0 0 1 .007-3.266c.24-1.196.732-2.242 1.461-3.109.786-.934 1.822-1.619 3.08-2.039 4.134-1.377 7.447 1.358 8.808 4.513a15.23 15.23 0 0 1 3.362 1.374c3.978 2.201 6.967 6.061 8.202 10.591.533 1.954 1.06 3.578 1.525 5.011.618 1.906 1.106 3.409 1.328 4.837.333 2.145 0 3.935-1.016 5.472zm.591-5.405c-.216-1.392-.699-2.881-1.311-4.767-.467-1.439-.996-3.067-1.531-5.032-1.205-4.417-4.119-8.181-7.995-10.326a14.792 14.792 0 0 0-3.366-1.362.214.214 0 0 1-.143-.126c-1.261-3.018-4.402-5.672-8.32-4.367-1.18.394-2.152 1.036-2.886 1.908-1.306 1.552-1.812 3.837-1.353 6.116a.22.22 0 0 1-.053.19 15.88 15.88 0 0 0-.364.415 15.163 15.163 0 0 0-2.485 4.21 17.603 17.603 0 0 0-1.207 5.937 18.785 18.785 0 0 0 .875 6.289c.328 1.033.612 1.96.886 2.858.723 2.362 1.293 4.226 1.975 5.745.595 1.326 1.619 3.213 3.634 4.287a7.17 7.17 0 0 0 2.71.789c.824.077 1.719.04 2.74-.113 1.58-.237 3.503-.755 6.43-1.73 3.223-1.074 5.133-1.793 6.592-2.484 1.728-.817 2.922-1.66 3.757-2.652.167-.198.324-.407.466-.622.954-1.441 1.264-3.13.949-5.163zm-12.308 9.869c-3.035 1.011-4.988 1.543-6.529 1.779-1.706.262-2.953.147-3.924-.359-.981-.511-1.733-1.435-2.437-2.997-.65-1.441-1.239-3.367-1.984-5.805-.287-.939-.612-2.002-.969-3.128a16.542 16.542 0 0 1-.531-7.848c.45-2.536 1.489-4.829 3.006-6.631 1.351-1.606 2.997-2.74 4.888-3.37a10.684 10.684 0 0 1 4.646-.464c1.542.178 3.054.664 4.495 1.445 3.433 1.86 6.007 5.151 7.061 9.029.6 2.209 1.186 4.015 1.703 5.608 1.313 4.049 2.036 6.28.511 8.092-1.323 1.572-4.384 2.799-9.936 4.649zm10.316-7.839c-.153-1.231-.66-2.792-1.3-4.766-.519-1.599-1.106-3.409-1.709-5.628-1.023-3.764-3.519-6.958-6.85-8.762-2.863-1.551-5.989-1.889-8.802-.952-1.816.605-3.396 1.695-4.695 3.239-3.023 3.592-3.962 9.113-2.393 14.065.358 1.128.683 2.193.97 3.132 1.489 4.872 2.309 7.556 4.207 8.545 1.894.987 5.018.253 10.121-1.447 5.476-1.824 8.486-3.025 9.743-4.518.653-.775.864-1.645.708-2.908zm-.914 2.376a.166.166 0 0 1-.18-.005.17.17 0 0 1-.047-.236c.23-.347.349-.727.375-1.195a.17.17 0 0 1 .178-.16.17.17 0 0 1 .159.18c-.03.53-.167.964-.431 1.364a.178.178 0 0 1-.054.052zm.222-2.965a.201.201 0 0 1-.05.02.17.17 0 0 1-.201-.13 19.24 19.24 0 0 0-.338-1.305.171.171 0 0 1 .115-.212.168.168 0 0 1 .209.116c.149.511.261.946.344 1.328a.173.173 0 0 1-.079.183zm-.843-2.941a.169.169 0 0 1-.247-.094c-.091-.285-.187-.581-.287-.887l-.131-.405a.169.169 0 1 1 .321-.106l.131.404.288.889a.173.173 0 0 1-.075.199zm-.555 6.811a.173.173 0 0 1-.047.237 9.478 9.478 0 0 1-.367.231c-.245.147-.522.299-.822.45a.168.168 0 0 1-.226-.076.17.17 0 0 1 .076-.229c.292-.148.561-.296.8-.439a9.54 9.54 0 0 0 .353-.222.166.166 0 0 1 .233.048zm-.381-9.723a.168.168 0 0 1-.247-.094 137.24 137.24 0 0 1-.4-1.302.171.171 0 0 1 .113-.213.168.168 0 0 1 .21.114c.125.418.256.842.399 1.297a.17.17 0 0 1-.075.198zm-.874-2.931a.169.169 0 0 1-.249-.1 60.394 60.394 0 0 1-.195-.705c-.054-.2-.113-.4-.177-.597a.17.17 0 0 1 .322-.105c.064.201.125.407.181.612.062.229.127.465.194.702a.172.172 0 0 1-.076.193zm-1.005-2.881a.168.168 0 0 1-.225-.082 13.487 13.487 0 0 0-.62-1.186.173.173 0 0 1 .058-.235.167.167 0 0 1 .231.059l.001.002c.231.393.445.802.636 1.215a.172.172 0 0 1-.081.227zm.311 14.366c-.305.363-.759.657-1.279.831l-10.331 3.442c-.562.186-1.135.214-1.614.076-.51-.147-.867-.462-1.007-.889l-2.756-8.444c-.148-.45-.02-.959.348-1.397.305-.362.759-.657 1.279-.831l10.331-3.442c.561-.186 1.134-.214 1.614-.076.51.146.867.462 1.006.889l2.757 8.444c.147.45.02.959-.348 1.397zm-.061-1.261l-1.294-3.964a.434.434 0 0 1-.192.486.428.428 0 0 1-.59-.148 13.822 13.822 0 0 1-.614-1.294c-.259-.629-.324-.946-.333-1.103a.687.687 0 0 1-.491.02.714.714 0 0 1-.092-1.309.694.694 0 0 1 .943.317.716.716 0 0 1-.2.88c.125.081.344.285.71.788.249.344.531.778.813 1.253.012.02.023.042.031.063l-1.447-4.433c-.093-.286-.347-.501-.716-.607-.397-.114-.881-.089-1.361.071l-10.331 3.443c-.446.148-.832.396-1.086.698-.273.324-.368.673-.268.98l2.757 8.444c.093.286.347.501.715.607.398.114.882.089 1.362-.071l10.33-3.443c.447-.148.833-.396 1.087-.698.273-.324.368-.672.267-.98zm-2.955-6.872a.387.387 0 0 0-.642-.078.392.392 0 0 0 .469.604.394.394 0 0 0 .173-.526zm-.908 7.404l-.972.323a.208.208 0 0 1-.149.05l-5.115 1.704c-.58.193-1.236.177-1.368-.228l-1.155-3.536c-.029-.092-.051-.277.136-.5.17-.203.473-.388.83-.506l6.236-2.078c.579-.193 1.236-.177 1.368.229l1.154 3.535c.03.092.052.277-.135.5-.171.203-.473.388-.83.507zm.47-1.137a.18.18 0 0 1-.028-.02l-1.795-1.542a.219.219 0 0 1-.024-.306.214.214 0 0 1 .303-.025l1.287 1.106-.167-.509-.013-.009-.7-.57a.218.218 0 0 1-.033-.305.215.215 0 0 1 .303-.033l.196.161-.395-1.212c-.049-.053-.358-.114-.827.042l-6.236 2.078c-.329.11-.545.266-.637.376a.217.217 0 0 0-.052.087l1.151 3.525c.049.053.357.114.826-.042l4.033-1.344-.774-.665a.219.219 0 0 1-.024-.306.214.214 0 0 1 .303-.025l.974.836.304-.101-1.489-1.28a.218.218 0 0 1-.024-.305.212.212 0 0 1 .303-.026l1.689 1.452.333-.112-1.829-1.569a.22.22 0 0 1-.024-.307.213.213 0 0 1 .303-.025l2.028 1.742.13-.043c.06-.02.116-.041.168-.064l-1.593-1.369a.219.219 0 0 1-.025-.307.214.214 0 0 1 .303-.025l1.707 1.466a.558.558 0 0 0 .077-.077.227.227 0 0 0 .053-.087l-.085-.261zm-11.406-2.911c-.282.094-.534.042-.57-.068-.014-.045.008-.109.063-.174a.807.807 0 0 1 .356-.223l10.75-3.582c.283-.094.535-.042.57.068.015.046-.008.108-.062.173a.811.811 0 0 1-.356.224l-10.751 3.582zm12.646-10.293c-.079-.133-.548-1.06-.598-1.487a.464.464 0 0 1-.556-.502c-.266-.078-.792-.179-1.695-.156-1.248.035-3.493.326-7.095 1.526-3.693 1.231-5.775 2.367-6.872 3.102-.831.558-1.239.978-1.408 1.18-.08.094-.112.146-.115.152a.226.226 0 0 1-.023.031.206.206 0 0 1-.264.045.21.21 0 0 1-.097-.13.21.21 0 0 1 .022-.161c.007-.014.052-.088.158-.214.244-.29.849-.894 2.158-1.675 1.587-.947 3.709-1.866 6.31-2.733 3.721-1.239 6.036-1.525 7.324-1.546 1.024-.017 1.586.122 1.841.213l.009-.006a.45.45 0 0 1 .352-.025.466.466 0 0 1 .198.754c.337.257.862 1.142.94 1.275a.348.348 0 0 1-.118.476.341.341 0 0 1-.471-.119zm-.505-2.055a.217.217 0 0 0-.362-.044.22.22 0 0 0 .264.341.22.22 0 0 0 .098-.297zm.846.144a.17.17 0 0 1-.219-.042 13.445 13.445 0 0 0-.867-1.02.17.17 0 0 1 .006-.24.167.167 0 0 1 .239.006c.311.331.61.682.888 1.045a.171.171 0 0 1-.03.239l-.017.012zm-2.112-2.188a.166.166 0 0 1-.192-.014 12.846 12.846 0 0 0-1.073-.793.171.171 0 0 1-.048-.236.167.167 0 0 1 .233-.05c.378.251.748.525 1.101.814a.172.172 0 0 1-.021.279zm-2.551-1.639a.166.166 0 0 1-.159.007 11.573 11.573 0 0 0-1.227-.511.17.17 0 0 1-.104-.217.167.167 0 0 1 .215-.105c.423.148.848.325 1.262.525a.172.172 0 0 1 .013.301zm-2.987-.934a10.104 10.104 0 0 0-1.315-.162.17.17 0 0 1 .019-.34c.2.012.404.029.605.052.25.03.503.068.752.115a.17.17 0 0 1 .136.198.168.168 0 0 1-.197.137zm-2.968-.117a9.18 9.18 0 0 0-1.299.244.17.17 0 0 1-.206-.122.172.172 0 0 1 .121-.209c.44-.115.893-.199 1.347-.252a.168.168 0 0 1 .186.151.169.169 0 0 1-.149.188zm-2.855.804a9.296 9.296 0 0 0-1.158.644.166.166 0 0 1-.233-.051.172.172 0 0 1 .05-.236 9.903 9.903 0 0 1 1.2-.667.168.168 0 0 1 .224.084.173.173 0 0 1-.067.218l-.016.008zm-2.774 1.967c-.21.212-.414.436-.607.666a.166.166 0 0 1-.238.021.172.172 0 0 1-.02-.24 11.377 11.377 0 0 1 .946-.998.168.168 0 0 1 .239.01.172.172 0 0 1-.01.241 9.732 9.732 0 0 0-.31.3zm-2.215 3.201a.167.167 0 0 1-.225.08.171.171 0 0 1-.08-.227c.198-.419.418-.826.654-1.211a.167.167 0 0 1 .232-.055c.079.05.104.155.055.234-.23.374-.443.771-.636 1.179zm-.343 11.992c-.011.006-.023.013-.035.016a.169.169 0 0 1-.212-.111c-.118-.381-.228-.731-.336-1.071a9.918 9.918 0 0 1-.07-.228.169.169 0 1 1 .323-.099l.069.223c.108.341.217.692.336 1.073a.17.17 0 0 1-.075.197zm-.709-9.03a.167.167 0 0 1-.25-.183c.1-.449.222-.896.364-1.329a.166.166 0 0 1 .212-.107.17.17 0 0 1 .108.214c-.138.423-.258.858-.355 1.296a.171.171 0 0 1-.079.109zm-.191 1.549a15.101 15.101 0 0 0-.079 1.342.171.171 0 0 1-.083.145.17.17 0 0 1-.255-.15 15.769 15.769 0 0 1 .082-1.372.168.168 0 0 1 .335.035zm-.197 2.869a.169.169 0 0 1 .184.153c.043.445.105.892.187 1.332a.172.172 0 0 1-.135.199.17.17 0 0 1-.197-.136 16.1 16.1 0 0 1-.191-1.362.171.171 0 0 1 .152-.186zm1.462 5.927a.167.167 0 0 1 .21.112l.136.443.263.857a.172.172 0 0 1-.112.214.169.169 0 0 1-.211-.113l-.262-.857-.136-.443a.17.17 0 0 1 .112-.213zm.901 2.923a.17.17 0 0 1 .213.109c.156.49.295.911.425 1.288a.169.169 0 0 1-.073.202.14.14 0 0 1-.03.015.17.17 0 0 1-.215-.105 57.104 57.104 0 0 1-.428-1.294.17.17 0 0 1 .108-.215zm1.236 2.974c.045.108.091.214.137.315.151.335.298.625.449.886a.172.172 0 0 1-.06.233h-.001a.167.167 0 0 1-.23-.061 12.33 12.33 0 0 1-.605-1.238.169.169 0 1 1 .31-.135zm1.609 2.456c.129.1.265.189.405.262.224.117.466.202.743.261a.17.17 0 0 1-.071.333 3.212 3.212 0 0 1-.826-.291 2.882 2.882 0 0 1-.458-.296.171.171 0 0 1-.03-.239.168.168 0 0 1 .237-.03zm2.776.591c.248-.02.517-.052.799-.095.166-.026.34-.056.517-.089a.171.171 0 0 1 .197.136.171.171 0 0 1-.136.2c-.18.033-.358.063-.527.09-.29.044-.567.078-.823.098a.17.17 0 1 1-.027-.34zm2.947-.554c.396-.103.831-.224 1.293-.359a.17.17 0 1 1 .094.327c-.465.137-.903.258-1.303.362a.168.168 0 0 1-.206-.122.172.172 0 0 1 .122-.208zm2.899-.854c.399-.127.83-.268 1.28-.418l.01-.004a.169.169 0 0 1 .213.109.17.17 0 0 1-.107.215l-.011.003c-.451.151-.883.292-1.283.42a.167.167 0 0 1-.211-.111.17.17 0 0 1 .109-.214zm2.886-.961c.459-.157.875-.302 1.271-.443a.17.17 0 0 1 .215.105.171.171 0 0 1-.073.203c-.009.005-.019.011-.03.014-.397.141-.814.287-1.275.444a.167.167 0 0 1-.214-.107.17.17 0 0 1 .106-.216zm2.849-1.022c.452-.172.872-.34 1.249-.497a.167.167 0 0 1 .22.092.17.17 0 0 1-.091.223c-.38.158-.803.327-1.258.501a.167.167 0 0 1-.217-.1.17.17 0 0 1 .097-.219zm-8.13-28.993a12.486 12.486 0 0 0-5.207.574 12.407 12.407 0 0 0-3.792 2.053.213.213 0 0 1-.228.024.217.217 0 0 1-.12-.198 5.653 5.653 0 0 1 .335-1.879 4.797 4.797 0 0 1 .836-1.453c.605-.719 1.418-1.252 2.416-1.585.833-.276 1.649-.358 2.425-.241a4.718 4.718 0 0 1 1.917.748c.61.405 1.169.964 1.616 1.617a.22.22 0 0 1-.013.265.215.215 0 0 1-.185.075zm-1.654-1.593a4.325 4.325 0 0 0-1.744-.683c-.71-.107-1.459-.031-2.227.225-.922.307-1.67.796-2.224 1.454a4.373 4.373 0 0 0-.76 1.321 5.131 5.131 0 0 0-.284 1.277 12.834 12.834 0 0 1 8.456-2.472 5.444 5.444 0 0 0-1.217-1.122zm911.949-113.301c-.292.435-.612.859-.954 1.259v.001c-1.683 1.977-4.065 3.646-7.497 5.251-2.833 1.327-6.529 2.703-12.753 4.754-5.669 1.868-9.404 2.861-12.489 3.321-2.026.3-3.811.372-5.459.218-2.01-.185-3.865-.721-5.516-1.59-4.095-2.159-6.155-5.903-7.349-8.534-1.33-2.933-2.433-6.497-3.829-11.01a534.582 534.582 0 0 0-1.7-5.425 36.182 36.182 0 0 1-1.72-12.228c.129-4.046.929-7.936 2.378-11.56 1.228-3.074 2.881-5.841 4.911-8.226.189-.222.383-.443.579-.659-.395-2.075-.39-4.216.013-6.206.462-2.272 1.406-4.259 2.807-5.906 1.51-1.775 3.501-3.078 5.915-3.875 7.942-2.617 14.306 2.58 16.922 8.575a29.365 29.365 0 0 1 6.457 2.61c7.64 4.182 13.384 11.517 15.756 20.124 1.024 3.713 2.036 6.798 2.928 9.52 1.188 3.622 2.125 6.478 2.551 9.19.639 4.077.001 7.477-1.951 10.396zm1.135-10.268c-.416-2.646-1.344-5.474-2.518-9.057-.897-2.734-1.913-5.829-2.942-9.562-2.313-8.392-7.911-15.544-15.357-19.619a28.558 28.558 0 0 0-6.465-2.587.41.41 0 0 1-.276-.239c-2.421-5.735-8.454-10.778-15.981-8.299-2.268.749-4.133 1.968-5.544 3.626-2.508 2.948-3.48 7.291-2.6 11.62a.409.409 0 0 1-.101.361c-.236.258-.472.522-.699.789-1.972 2.318-3.577 5.008-4.772 7.998-1.414 3.536-2.194 7.33-2.32 11.28a35.327 35.327 0 0 0 1.681 11.949 534.182 534.182 0 0 1 1.702 5.432c1.388 4.488 2.484 8.029 3.794 10.915 1.142 2.519 3.11 6.105 6.98 8.145 1.555.818 3.307 1.322 5.206 1.499 1.582.147 3.303.077 5.262-.214 3.036-.451 6.73-1.434 12.352-3.288 6.191-2.04 9.86-3.407 12.663-4.718 3.32-1.553 5.614-3.155 7.216-5.039h.001c.321-.376.622-.775.895-1.183 1.832-2.738 2.429-5.946 1.823-9.809zm-23.642 18.75c-5.83 1.921-9.581 2.932-12.542 3.382-3.277.496-5.672.279-7.537-.683-1.885-.972-3.329-2.726-4.681-5.694-1.25-2.74-2.38-6.398-3.811-11.03-.552-1.783-1.176-3.804-1.862-5.944-1.549-4.838-1.902-9.993-1.021-14.911.865-4.818 2.861-9.174 5.775-12.599 2.596-3.05 5.756-5.205 9.39-6.402 2.846-.938 5.848-1.235 8.924-.883 2.961.339 5.866 1.263 8.634 2.747 6.596 3.533 11.539 9.787 13.564 17.156 1.152 4.196 2.278 7.627 3.271 10.654 2.522 7.694 3.911 11.931.981 15.375-2.541 2.986-8.421 5.317-19.085 8.832zm19.815-14.894c-.294-2.339-1.267-5.303-2.497-9.055-.996-3.038-2.124-6.478-3.282-10.694-1.965-7.151-6.761-13.219-13.158-16.646-5.5-2.948-11.505-3.589-16.908-1.809-3.488 1.15-6.523 3.22-9.019 6.154-5.807 6.824-7.611 17.314-4.597 26.723a590.933 590.933 0 0 1 1.864 5.952c2.86 9.256 4.436 14.355 8.082 16.235 3.637 1.875 9.638.479 19.44-2.75 10.519-3.467 16.301-5.746 18.716-8.583 1.253-1.474 1.66-3.126 1.359-5.527zm-1.756 4.515a.323.323 0 0 1-.435-.458c.441-.66.671-1.382.721-2.271a.324.324 0 0 1 .647.037c-.058 1.009-.321 1.834-.829 2.593a.338.338 0 0 1-.104.099zm.427-5.634a.327.327 0 0 1-.483-.209 35.456 35.456 0 0 0-.648-2.48.324.324 0 1 1 .623-.181c.285.971.501 1.797.659 2.522a.323.323 0 0 1-.151.348zm-1.618-5.587a.326.326 0 0 1-.475-.178c-.175-.542-.36-1.105-.551-1.687l-.251-.769a.323.323 0 0 1 .206-.41.326.326 0 0 1 .409.209l.252.768.553 1.69a.323.323 0 0 1-.143.377zm-1.066 12.941c.099.15.057.35-.092.449-.22.145-.457.293-.704.439-.472.28-1.002.568-1.579.855a.322.322 0 0 1-.434-.144.322.322 0 0 1 .145-.435 24.431 24.431 0 0 0 1.537-.833c.238-.14.466-.284.678-.423.152-.1.35-.057.449.092zm-.732-18.473a.325.325 0 0 1-.476-.181c-.275-.869-.525-1.678-.769-2.472a.325.325 0 0 1 .622-.189c.24.793.491 1.6.766 2.465a.324.324 0 0 1-.143.377zm-1.681-5.57a.323.323 0 0 1-.478-.19c-.127-.451-.254-.903-.374-1.34-.104-.379-.217-.76-.339-1.133a.324.324 0 1 1 .617-.2c.124.382.241.773.348 1.162.12.436.245.885.373 1.334a.325.325 0 0 1-.147.367zm-1.93-5.473a.327.327 0 0 1-.431-.157 25.896 25.896 0 0 0-1.191-2.253.324.324 0 1 1 .555-.334l.001.004a26.36 26.36 0 0 1 1.222 2.308.324.324 0 0 1-.156.432zm.597 27.295c-.585.689-1.458 1.248-2.457 1.578l-19.845 6.54c-1.077.354-2.178.406-3.1.144-.978-.279-1.665-.877-1.933-1.688l-5.295-16.044c-.283-.855-.038-1.823.67-2.656.585-.687 1.457-1.247 2.457-1.577l19.844-6.54c1.078-.354 2.178-.407 3.1-.144.979.276 1.666.877 1.933 1.688l5.295 16.043c.283.856.039 1.824-.669 2.656zm-.115-2.396l-2.486-7.533a.821.821 0 0 1-.37.924.825.825 0 0 1-1.132-.282c-.14-.233-.715-1.341-1.18-2.457-.499-1.196-.623-1.798-.639-2.095a1.343 1.343 0 0 1-1.725-.641 1.346 1.346 0 0 1 .603-1.809 1.348 1.348 0 0 1 1.633 2.08 1.29 1.29 0 0 1-.204.194c.239.155.66.541 1.362 1.498.48.653 1.021 1.478 1.563 2.379.023.04.044.08.06.121l-2.781-8.423c-.178-.544-.666-.952-1.374-1.153-.764-.217-1.693-.17-2.615.134l-19.845 6.541c-.857.282-1.598.754-2.086 1.327-.525.616-.707 1.279-.514 1.862l5.295 16.044c.179.543.667.952 1.374 1.152.764.218 1.694.171 2.616-.133l19.844-6.541c.857-.283 1.598-.754 2.086-1.328.525-.615.707-1.276.515-1.861zm-5.677-13.057a.746.746 0 0 0-1.233-.149.74.74 0 0 0-.099.814.747.747 0 0 0 1.233.151.743.743 0 0 0 .099-.816zm-1.745 14.067l-1.867.614a.404.404 0 0 1-.285.095l-9.826 3.238c-1.114.367-2.375.335-2.629-.434l-2.217-6.718c-.057-.174-.099-.528.26-.95.328-.386.909-.736 1.594-.961l11.979-3.949c1.113-.367 2.374-.335 2.628.435l2.217 6.717c.058.174.1.528-.259.95-.328.387-.91.737-1.595.963zm.903-2.16a.394.394 0 0 1-.053-.038l-3.448-2.93a.412.412 0 1 1 .535-.628l2.472 2.1-.319-.967c-.009-.007-.018-.01-.026-.016l-1.345-1.082a.413.413 0 0 1 .518-.643l.378.304-.76-2.302c-.094-.099-.687-.216-1.588.081l-11.978 3.948c-.632.208-1.047.504-1.224.713-.081.096-.097.151-.1.167l2.21 6.697c.096.099.687.216 1.588-.081l7.747-2.552-1.487-1.264a.412.412 0 1 1 .536-.628l1.87 1.588.585-.193-2.86-2.431a.412.412 0 1 1 .535-.629l3.245 2.758.638-.212-3.512-2.982a.413.413 0 0 1 .536-.629l3.895 3.309.251-.083a3.96 3.96 0 0 0 .322-.121l-3.06-2.601a.413.413 0 0 1 .534-.63l3.278 2.785a1.3 1.3 0 0 0 .149-.145.413.413 0 0 0 .101-.167l-.163-.496zm-21.909-5.531c-.543.178-1.026.08-1.095-.129-.028-.086.015-.206.12-.329.149-.176.399-.331.684-.425l20.651-6.806c.543-.179 1.026-.079 1.095.129.028.087-.016.206-.121.329-.149.176-.398.331-.683.425l-20.651 6.806zm25.196-19.33a.661.661 0 0 1-.906-.227c-.15-.252-1.051-2.014-1.148-2.826a.885.885 0 0 1-1.068-.953c-.511-.149-1.521-.34-3.255-.295-2.399.065-6.709.619-13.628 2.899-7.095 2.337-11.095 4.496-13.203 5.893-1.595 1.06-2.379 1.859-2.704 2.242-.152.179-.214.277-.221.288a.4.4 0 0 1-.55.145.4.4 0 0 1-.145-.553c.015-.026.101-.167.303-.406.47-.552 1.632-1.698 4.146-3.182 3.048-1.799 7.126-3.546 12.122-5.193 7.146-2.355 11.594-2.898 14.068-2.938 1.967-.033 3.046.231 3.535.405l.018-.012a.876.876 0 0 1 .677-.047.883.883 0 0 1 .38 1.432c.647.489 1.655 2.171 1.807 2.422a.66.66 0 0 1-.228.906zm-1.875-4.13a.42.42 0 1 0-.752.374.42.42 0 0 0 .752-.374zm1.624.271a.323.323 0 0 1-.42-.079 25.852 25.852 0 0 0-1.665-1.937.324.324 0 1 1 .47-.446c.598.63 1.172 1.297 1.706 1.986a.322.322 0 0 1-.056.454c-.012.008-.022.016-.035.022zm-4.055-4.155a.322.322 0 0 1-.37-.028 24.663 24.663 0 0 0-2.06-1.506.324.324 0 0 1 .355-.543c.726.477 1.437.996 2.114 1.547a.323.323 0 0 1-.039.53zm-4.901-3.114a.33.33 0 0 1-.306.013 22.14 22.14 0 0 0-2.356-.971.325.325 0 0 1-.201-.413.325.325 0 0 1 .414-.2c.813.283 1.629.618 2.423.999a.325.325 0 0 1 .026.572zm-5.738-1.775a19.62 19.62 0 0 0-2.526-.308.323.323 0 1 1 .037-.646c.384.022.775.055 1.163.1.48.056.966.128 1.444.217a.324.324 0 1 1-.118.637zm-5.571-.266a.285.285 0 0 1-.129.042c-.842.097-1.681.252-2.497.464a.324.324 0 0 1-.163-.627c.846-.219 1.716-.38 2.587-.479a.323.323 0 0 1 .202.6zm-5.614 1.571c-.764.351-1.516.766-2.225 1.223a.323.323 0 0 1-.448-.096.325.325 0 0 1 .097-.449 18.829 18.829 0 0 1 2.305-1.266.324.324 0 0 1 .302.572l-.031.016zm-5.329 3.737c-.403.403-.795.829-1.166 1.267a.323.323 0 0 1-.495-.418 21.31 21.31 0 0 1 1.817-1.895.324.324 0 1 1 .439.477c-.2.183-.4.376-.595.569zm-4.254 6.082a.33.33 0 0 1-.127.139.324.324 0 0 1-.458-.418c.379-.796.801-1.57 1.254-2.301a.324.324 0 0 1 .552.341c-.441.71-.851 1.464-1.221 2.239zm-.659 22.785a.322.322 0 0 1-.475-.18 317.01 317.01 0 0 0-.645-2.036 54.767 54.767 0 0 1-.136-.433.325.325 0 0 1 .621-.189c.043.142.088.283.133.424.207.648.418 1.315.646 2.039a.323.323 0 0 1-.144.375zm-1.361-17.158a.323.323 0 0 1-.482-.348c.192-.851.427-1.702.699-2.523a.324.324 0 1 1 .615.204 26.15 26.15 0 0 0-.682 2.461.32.32 0 0 1-.15.206zm-.368 2.944a27.935 27.935 0 0 0-.152 2.551.326.326 0 0 1-.33.319.325.325 0 0 1-.319-.329 28.527 28.527 0 0 1 .157-2.608.324.324 0 1 1 .644.067zm-.378 5.451a.325.325 0 0 1 .354.29c.081.846.201 1.696.358 2.532a.324.324 0 0 1-.637.12 29.45 29.45 0 0 1-.366-2.588.324.324 0 0 1 .291-.354zm2.807 11.261a.324.324 0 0 1 .405.214l.261.842.504 1.628a.323.323 0 0 1-.145.374.311.311 0 0 1-.069.032.325.325 0 0 1-.405-.215c-.165-.528-.332-1.071-.505-1.628l-.26-.843a.323.323 0 0 1 .214-.404zm1.732 5.554a.325.325 0 0 1 .408.208c.3.931.568 1.73.818 2.446a.32.32 0 0 1-.141.384.225.225 0 0 1-.058.029.324.324 0 0 1-.412-.199c-.253-.721-.522-1.525-.824-2.46a.325.325 0 0 1 .209-.408zm2.373 5.652c.087.205.176.405.263.597.291.636.573 1.187.863 1.684a.323.323 0 0 1-.114.442l-.002.001a.324.324 0 0 1-.443-.117 19.275 19.275 0 0 1-.893-1.741c-.089-.198-.18-.402-.27-.611a.324.324 0 1 1 .596-.255zm3.091 4.666c.248.19.51.359.779.498.429.221.895.382 1.426.495a.324.324 0 1 1-.135.633 6.283 6.283 0 0 1-1.587-.553 5.6 5.6 0 0 1-.88-.563.323.323 0 1 1 .397-.51zm5.332 1.122c.478-.037.995-.099 1.537-.18.319-.05.652-.107.992-.169a.324.324 0 0 1 .117.638c-.346.062-.687.12-1.012.17-.558.085-1.089.147-1.582.187a.324.324 0 0 1-.052-.646zm5.661-1.052a86.042 86.042 0 0 0 2.485-.683.323.323 0 1 1 .18.622c-.893.26-1.735.491-2.503.688a.323.323 0 0 1-.395-.232.325.325 0 0 1 .233-.395zm5.57-1.623c.766-.242 1.593-.51 2.458-.795l.019-.007a.324.324 0 0 1 .204.616l-.022.007c-.865.285-1.695.553-2.463.796a.324.324 0 1 1-.196-.617zm5.542-1.825c.884-.299 1.683-.575 2.443-.842a.324.324 0 1 1 .215.611c-.762.268-1.564.545-2.449.844a.322.322 0 0 1-.411-.203.322.322 0 0 1 .202-.41zm5.475-1.943a90.332 90.332 0 0 0 2.398-.944.323.323 0 0 1 .29.577.846.846 0 0 1-.042.022c-.73.301-1.543.619-2.417.95a.323.323 0 1 1-.229-.605zm-15.263-55.23a.408.408 0 0 1-.355.143c-3.435-.332-6.801.034-10.003 1.09a23.932 23.932 0 0 0-7.284 3.902.412.412 0 0 1-.668-.331c.016-1.257.232-2.459.643-3.569a9.15 9.15 0 0 1 1.606-2.762c1.163-1.366 2.725-2.378 4.642-3.011 1.6-.525 3.166-.68 4.658-.459a9.144 9.144 0 0 1 3.682 1.424c1.172.767 2.245 1.83 3.104 3.071a.413.413 0 0 1-.025.502zm-3.532-2.883a8.317 8.317 0 0 0-3.351-1.297c-1.362-.203-2.801-.059-4.277.427-1.771.584-3.209 1.513-4.272 2.762a8.316 8.316 0 0 0-1.46 2.51 9.684 9.684 0 0 0-.546 2.427 24.75 24.75 0 0 1 6.822-3.499 25 25 0 0 1 9.421-1.198 10.44 10.44 0 0 0-2.337-2.132zM1643.94 250.224a6.081 6.081 0 0 1-.518 2.052.449.449 0 0 1-.253.24l-.331.124a.12.12 0 0 1-.02.008l-45.885 17.212a2.058 2.058 0 0 1-.719.134c-.906 0-1.622-.661-1.739-1.606l-.564-4.569a.446.446 0 0 1-.015-.119l-.142-1.152a1.854 1.854 0 0 1-.305.025c-.908 0-1.625-.659-1.748-1.602l-4.585-35.475c-.148-1.142.62-2.4 1.712-2.797l39.621-14.498c.165-.062.336-.102.509-.121.32-.058.636-.09.94-.09 1.557 0 2.849.813 3.371 2.122l.012.035c.544 1.771 1.275 4.748 1.315 4.912l8.869 31.771.005.019c.047.207.459 2.016.468 2.685.014.212.015.429.003.645l-.001.045zm-48.573 18.056c.061.501.394.824.847.824.129 0 .265-.026.401-.076l45.124-16.927c.075-.23.137-.461.184-.688-5.635 2.117-42.219 15.859-43.67 16.279-.684.198-1.187.298-1.592.298-.491 0-.84-.147-1.198-.451a1.13 1.13 0 0 1-.221-.268l.125 1.009zm-.574-4.642c.429 1.378 1.025 2.986 1.258 3.23.273.231.477.396 1.951-.03 1.446-.418 40.629-15.14 44.039-16.421.03-1.147-.317-2.232-1.038-3.244a7.183 7.183 0 0 0-1.683-1.667l-44.696 16.762.169 1.37zm33.916-54.585l-39.571 14.48c-.71.259-1.228 1.106-1.132 1.85l3.09 23.899 2.106-5.123a.452.452 0 0 1 .585-.244c.23.094.34.353.246.581l-2.706 6.58.376 2.909 4.475-10.489a.45.45 0 0 1 .588-.236.443.443 0 0 1 .239.583l-5.001 11.722a.436.436 0 0 1-.081.124l.334 2.584 4.434-10.392a.449.449 0 0 1 .826.346l-5 11.722a.494.494 0 0 1-.035.064l.109.844c.03.232.119.427.251.569l4.938-11.577a.451.451 0 0 1 .588-.236.444.444 0 0 1 .24.583l-4.885 11.45a1.66 1.66 0 0 0 .126-.04l.127-.047h.001l1.916-.719 4.933-11.563a.452.452 0 0 1 .588-.236.444.444 0 0 1 .239.584l-4.599 10.78 1.997-.749 3.554-8.926a.451.451 0 0 1 .582-.251c.23.092.343.349.253.577l-3.255 8.174 2.669-1 1.737-4.447a.45.45 0 0 1 .58-.255.445.445 0 0 1 .258.576l-1.448 3.703 34.851-13.069-10.123-35.685zm14.332 40.53l-.001-.016v-.014c-.002-.471-.318-1.951-.443-2.495l-8.868-31.768-.004-.015c-.007-.031-.748-3.06-1.297-4.852-.393-.967-1.338-1.543-2.53-1.543-.098 0-.2.005-.302.013l10.166 35.836a7.99 7.99 0 0 1 1.974 1.931c.711.996 1.406 2.517 1.144 4.469.089-.328.144-.652.164-.97v-.015c.011-.189.01-.379-.003-.561zm-5.737-6.019c-.129.827-.385 1.398-7.309 3.75 0 0 6.027-2.223 5.962-9.531 0 0 1.475 4.956 1.347 5.781zm-45.507-17.733c-1.366 2.335-2.256 5.93-2.155 8.472l-1.019-7.137c-.489-1.721.374-3.179 2.111-3.664l6.499-2.304c-2.077.843-4.231 2.587-5.436 4.633zm46.27 22.972l-16.657 6.093a.304.304 0 0 1-.109.02l-.041-.002a.315.315 0 0 1-.255-.203.31.31 0 0 1 .187-.399l16.657-6.095a.297.297 0 0 1 .108-.021.314.314 0 0 1 .11.607zm-1.796.825a.312.312 0 0 1 .11.605l-16.657 6.094a.302.302 0 0 1-.109.02c-.013 0-.026 0-.038-.003a.315.315 0 0 1-.258-.202.313.313 0 0 1 .188-.401l16.655-6.093a.296.296 0 0 1 .109-.02zm-15.147 6.773l16.658-6.095a.316.316 0 0 1 .404.185.313.313 0 0 1-.185.4l-16.658 6.095a.318.318 0 0 1-.15.017.316.316 0 0 1-.255-.202.313.313 0 0 1 .186-.4zM153.94 260.224a6.081 6.081 0 0 1-.518 2.052.449.449 0 0 1-.253.24l-.331.124a.12.12 0 0 1-.02.008l-45.885 17.212a2.054 2.054 0 0 1-.719.134c-.906 0-1.622-.66-1.739-1.606l-.564-4.569a.441.441 0 0 1-.015-.119l-.142-1.151a1.969 1.969 0 0 1-.305.024c-.908 0-1.625-.659-1.748-1.603l-4.585-35.474c-.148-1.142.62-2.4 1.712-2.798l39.621-14.497c.165-.061.336-.101.509-.121.32-.058.636-.089.94-.089 1.557 0 2.849.812 3.371 2.12l.012.035c.544 1.772 1.275 4.749 1.315 4.913l8.869 31.771.005.019c.047.207.459 2.016.468 2.684.014.213.015.43.003.646l-.001.045zm-48.573 18.056c.061.501.394.825.847.825.129 0 .264-.027.401-.078l45.124-16.926c.075-.23.137-.461.184-.688-5.635 2.117-42.219 15.86-43.67 16.279-.684.198-1.187.298-1.592.298-.491 0-.84-.147-1.197-.451a1.126 1.126 0 0 1-.222-.268l.125 1.009zm-.574-4.642c.428 1.378 1.025 2.986 1.258 3.229.273.232.477.397 1.951-.029 1.446-.418 40.629-15.139 44.039-16.421.03-1.146-.317-2.233-1.038-3.244a7.183 7.183 0 0 0-1.683-1.667l-44.697 16.762.17 1.37zm33.916-54.585l-39.57 14.48c-.711.259-1.229 1.106-1.133 1.85l3.09 23.899 2.106-5.123a.451.451 0 0 1 .585-.243c.23.093.34.352.246.58l-2.706 6.579.376 2.91 4.475-10.488a.45.45 0 0 1 .588-.238.444.444 0 0 1 .239.583l-5.001 11.723a.436.436 0 0 1-.081.124l.334 2.584 4.433-10.393a.45.45 0 0 1 .589-.236.442.442 0 0 1 .238.582l-5 11.723a.36.36 0 0 1-.035.064l.109.844c.03.233.119.427.251.569l4.938-11.577a.45.45 0 0 1 .589-.235.443.443 0 0 1 .239.582l-4.885 11.45c.041-.011.084-.024.126-.04l.127-.047h.001l1.916-.719 4.933-11.563a.452.452 0 0 1 .588-.236.444.444 0 0 1 .239.584l-4.599 10.78 1.997-.749 3.554-8.926a.45.45 0 0 1 .582-.251c.23.092.343.349.253.577l-3.255 8.174 2.669-1.001 1.737-4.446a.45.45 0 0 1 .581-.255c.231.09.346.347.257.576l-1.448 3.703 34.851-13.069-10.123-35.685zm14.333 40.53l-.001-.016-.001-.014c-.002-.472-.318-1.951-.443-2.495l-8.868-31.768a.066.066 0 0 1-.004-.015c-.007-.031-.748-3.06-1.297-4.852-.393-.967-1.337-1.543-2.53-1.543-.099 0-.2.005-.302.013l10.166 35.835c.35.236 1.228.885 1.974 1.932.711.996 1.406 2.517 1.144 4.469.089-.327.144-.652.164-.969l.001-.016c.01-.189.009-.379-.003-.561zm-5.738-6.018c-.129.826-.385 1.397-7.309 3.749 0 0 6.027-2.223 5.962-9.531 0 0 1.475 4.956 1.347 5.782zm-45.507-17.734c-1.366 2.336-2.256 5.93-2.155 8.472l-1.019-7.137c-.489-1.721.374-3.179 2.111-3.665l6.499-2.303c-2.077.844-4.231 2.587-5.436 4.633zm46.27 22.972l-16.657 6.093a.304.304 0 0 1-.109.02l-.041-.002a.315.315 0 0 1-.255-.203.31.31 0 0 1 .187-.399l16.657-6.095a.297.297 0 0 1 .108-.021.314.314 0 0 1 .11.607zm-1.796.825c.132 0 .251.083.296.204a.314.314 0 0 1-.186.402l-16.657 6.093a.302.302 0 0 1-.109.02c-.013 0-.026 0-.038-.002a.317.317 0 0 1-.258-.203.306.306 0 0 1 .011-.239.317.317 0 0 1 .177-.162l16.655-6.094a.317.317 0 0 1 .109-.019zm-15.147 6.773l16.658-6.096a.316.316 0 0 1 .404.186.311.311 0 0 1-.185.4l-16.658 6.095a.318.318 0 0 1-.109.02l-.041-.003a.316.316 0 0 1-.255-.202.313.313 0 0 1 .186-.4zm491.599-164.619l-6.023 1.332c-.993.219-1.977 1.248-2.152 2.247l-1.054 6.062c-.188 1.081-.728 1.197-.951 1.197-.263 0-.659-.143-1.065-.831l-3.132-5.3c-.46-.778-1.536-1.366-2.505-1.366-.104 0-.205.007-.302.021l-6.107.873c-.144.02-.281.031-.406.031-.678 0-.919-.308-1.002-.491-.116-.257-.135-.698.435-1.339l4.087-4.608c.673-.76.864-2.17.415-3.079l-2.718-5.522c-.347-.702-.257-1.11-.121-1.329.142-.227.395-.351.712-.351.236 0 .513.068.823.201l5.658 2.452c.291.127.643.193 1.015.193.786 0 1.572-.287 2.05-.749l4.425-4.287c.374-.362.727-.546 1.046-.546.214 0 .402.082.544.238.223.246.31.647.258 1.194l-.591 6.125c-.097 1.007.58 2.26 1.479 2.733l5.455 2.873c.795.42.915.856.876 1.148-.04.293-.271.684-1.149.878zm-.029-1.456l-5.455-2.872c-1.125-.594-1.942-2.104-1.82-3.367l.59-6.123c.039-.399-.022-.623-.093-.699-.016-.018-.03-.028-.065-.028-.051 0-.246.028-.595.365l-4.426 4.286c-.594.576-1.552.932-2.5.932-.461 0-.9-.085-1.273-.246l-5.658-2.453c-.283-.123-.464-.148-.565-.148-.04 0-.137.005-.163.048-.041.066-.055.286.151.703l2.72 5.522c.561 1.139.332 2.839-.511 3.79l-4.088 4.609c-.338.382-.353.595-.33.646.018.039.127.112.413.112.094 0 .2-.008.314-.024l6.106-.873c.128-.019.261-.028.395-.028 1.198 0 2.486.709 3.062 1.683l3.132 5.3c.24.407.437.514.508.514.065 0 .228-.162.314-.662l1.055-6.062c.218-1.251 1.406-2.492 2.647-2.766l6.023-1.332c.454-.101.638-.259.649-.334.01-.077-.126-.277-.537-.493zm-2.878.993l-4.637 1.026c-.736.163-1.468.929-1.598 1.671l-.811 4.666c-.155.886-.615.982-.806.982-.222 0-.553-.118-.884-.675l-2.41-4.081c-.343-.579-1.144-1.016-1.865-1.016-.076 0-.152.006-.223.016l-4.7.672a2.218 2.218 0 0 1-.324.025c-.564 0-.767-.264-.839-.422-.097-.217-.117-.586.347-1.11l3.147-3.548c.5-.564.642-1.611.308-2.287l-2.093-4.252c-.282-.57-.204-.91-.089-1.094.123-.196.34-.306.611-.306.193 0 .416.054.663.161l4.357 1.888c.214.093.475.143.751.143.587 0 1.171-.214 1.526-.557l3.407-3.299c.302-.294.591-.442.857-.442.183 0 .351.074.473.208.187.206.26.533.218.976l-.455 4.714c-.072.75.431 1.681 1.099 2.032l4.2 2.211c.684.362.74.757.713.96-.028.204-.187.572-.943.738zm-.073-1.128l-4.199-2.212c-.905-.476-1.538-1.646-1.44-2.663l.454-4.713c.029-.308-.023-.445-.049-.478-.059.004-.2.062-.405.259l-3.407 3.3c-.47.455-1.228.739-1.976.739-.364 0-.714-.069-1.009-.196l-4.356-1.888c-.217-.094-.348-.108-.406-.108a.194.194 0 0 0-.065.008c-.013.038-.013.187.123.463l2.094 4.251c.451.917.273 2.234-.405 3l-3.146 3.547c-.206.232-.244.374-.242.415.022.016.096.046.249.046.07 0 .148-.007.232-.019l4.701-.672a2.31 2.31 0 0 1 .314-.022c.947 0 1.965.561 2.421 1.334l2.411 4.08c.158.266.282.346.322.357.033-.024.12-.142.174-.447l.812-4.668c.174-1.006 1.095-1.967 2.095-2.189l4.636-1.025c.304-.067.418-.16.44-.194-.012-.04-.097-.159-.373-.305zM100.407 79.382l-22.491 33.152a2.522 2.522 0 0 1-3.476.674L51.233 97.739a2.465 2.465 0 0 1-.68-3.446l22.492-33.15c.373-.551.94-.924 1.596-1.051a2.503 2.503 0 0 1 1.879.376l23.207 15.469c.346.23.63.545.822.91.426.808.371 1.78-.142 2.535zm-.652-2.124a1.6 1.6 0 0 0-.528-.584L76.02 61.204a1.616 1.616 0 0 0-2.232.434L51.296 94.789a1.582 1.582 0 0 0 .437 2.213l23.207 15.469a1.62 1.62 0 0 0 2.233-.433l22.492-33.151c.329-.486.364-1.11.09-1.629zm-6.147 8.784a3.212 3.212 0 0 1-4.428.859L70.253 74.286a3.178 3.178 0 0 1-1.045-1.156 3.14 3.14 0 0 1 .179-3.233l3.774-5.564a3.17 3.17 0 0 1 2.035-1.337 3.188 3.188 0 0 1 2.393.478l18.927 12.615c.439.293.8.693 1.044 1.157a3.135 3.135 0 0 1-.178 3.232l-3.774 5.564zm3.158-8.385a2.27 2.27 0 0 0-.751-.831L77.089 64.211a2.297 2.297 0 0 0-1.721-.344 2.285 2.285 0 0 0-1.464.962l-3.774 5.563a2.27 2.27 0 0 0 .624 3.157l18.925 12.615c1.051.7 2.479.424 3.185-.618l3.775-5.563c.47-.692.518-1.583.127-2.326zm-27.143-2.568l2.156 1.437c.195.13.355.306.464.513a1.455 1.455 0 0 1-.094 1.497l-1.147 1.692a1.49 1.49 0 0 1-.924.623c-.384.083-.772.01-1.094-.205l-2.156-1.436a1.412 1.412 0 0 1-.463-.514 1.455 1.455 0 0 1 .093-1.497l1.148-1.691c.218-.322.546-.544.924-.625a1.415 1.415 0 0 1 1.093.206zm-.905.663a.587.587 0 0 0-.369.251l-1.147 1.692a.576.576 0 0 0-.043.591.515.515 0 0 0 .169.187l2.156 1.437a.522.522 0 0 0 .405.073.59.59 0 0 0 .369-.251l1.149-1.692a.576.576 0 0 0 .041-.591.511.511 0 0 0-.168-.187l-2.156-1.436a.524.524 0 0 0-.406-.074zm1.381 3.874a.41.41 0 0 1-.244.169.326.326 0 0 1-.263-.044l-1.171-.78a2.961 2.961 0 0 0 2.354-.343l-.676.998zm-3.345-.307l2.156 1.436c.194.13.355.308.463.514a1.457 1.457 0 0 1-.093 1.497l-1.148 1.691c-.454.669-1.359.858-2.017.419l-2.156-1.438a1.417 1.417 0 0 1-.464-.512 1.457 1.457 0 0 1 .094-1.498l1.147-1.691c.455-.67 1.359-.857 2.018-.418zm-1.275.913l-1.147 1.692a.574.574 0 0 0-.042.591c.04.076.097.139.168.187l2.157 1.437c.248.166.596.086.774-.177l1.148-1.692a.577.577 0 0 0 .042-.59.491.491 0 0 0-.169-.187l-2.156-1.438c-.248-.166-.595-.086-.775.177zm2.542 2.455l-.792 1.168c-.12.176-.346.232-.507.125l-1.322-.881a2.94 2.94 0 0 0 1.464.081 2.944 2.944 0 0 0 1.157-.493zm-4.136.86l2.156 1.438c.194.13.354.307.462.512.25.473.214 1.047-.092 1.498l-1.148 1.691a1.488 1.488 0 0 1-.924.625 1.426 1.426 0 0 1-1.094-.206l-2.156-1.437a1.406 1.406 0 0 1-.462-.513 1.455 1.455 0 0 1 .092-1.497l1.148-1.692c.218-.322.546-.543.924-.624a1.422 1.422 0 0 1 1.094.205zm-.906.663a.6.6 0 0 0-.369.251l-1.147 1.693a.572.572 0 0 0-.042.59c.04.076.096.139.168.187l2.156 1.437a.522.522 0 0 0 .405.074.593.593 0 0 0 .37-.251l1.147-1.691a.576.576 0 0 0 .042-.592.5.5 0 0 0-.168-.186l-2.156-1.437a.529.529 0 0 0-.406-.075zm2.272 2.56l-.891 1.315c-.12.176-.347.231-.507.125l-1.605-1.07a3.003 3.003 0 0 0 3.003-.37zm-4.236 1.007l2.156 1.437c.194.13.354.307.463.513a1.455 1.455 0 0 1-.093 1.497l-1.148 1.691a1.484 1.484 0 0 1-.924.625 1.42 1.42 0 0 1-1.094-.206l-2.155-1.436a1.395 1.395 0 0 1-.463-.514 1.455 1.455 0 0 1 .092-1.496l1.148-1.692c.219-.322.547-.544.924-.624a1.422 1.422 0 0 1 1.094.205zm-.905.663a.6.6 0 0 0-.37.251l-1.147 1.692a.574.574 0 0 0-.042.591c.04.076.097.139.169.187l2.156 1.437a.521.521 0 0 0 .405.073.593.593 0 0 0 .369-.25l1.148-1.692a.578.578 0 0 0 .042-.592.52.52 0 0 0-.169-.186l-2.156-1.437a.52.52 0 0 0-.405-.074zm2.228 2.625l-.848 1.249c-.119.176-.347.232-.507.125l-1.351-.901c.465.15.966.179 1.465.082.462-.09.884-.28 1.241-.555zm-4.193.941l2.157 1.437c.194.13.354.307.462.513a1.456 1.456 0 0 1-.092 1.498l-1.148 1.691c-.455.669-1.359.858-2.018.419l-2.156-1.437a1.406 1.406 0 0 1-.462-.513 1.456 1.456 0 0 1 .092-1.498l1.148-1.691c.454-.67 1.36-.857 2.017-.419zm-1.273.915l-1.149 1.691a.576.576 0 0 0-.041.591c.04.076.096.14.168.187l2.156 1.437c.249.166.596.086.775-.177l1.147-1.692a.574.574 0 0 0 .042-.591.495.495 0 0 0-.168-.187l-2.156-1.437c-.248-.165-.596-.086-.774.178zm2.575 2.404l-.827 1.218a.403.403 0 0 1-.243.17.341.341 0 0 1-.264-.044l-1.256-.838c.437.122.903.145 1.353.057a2.934 2.934 0 0 0 1.237-.563zm2.37.892c.455-.67 1.359-.857 2.018-.419l2.156 1.438c.194.129.355.307.463.512a1.454 1.454 0 0 1-.093 1.497l-1.148 1.693c-.454.669-1.359.857-2.018.418l-2.156-1.437a1.406 1.406 0 0 1-.462-.513 1.455 1.455 0 0 1 .092-1.497l1.148-1.692zm-.446 2.778c.04.077.097.139.169.187l2.155 1.436c.249.167.596.087.775-.176l1.148-1.691a.578.578 0 0 0 .042-.592.512.512 0 0 0-.169-.186l-2.156-1.437c-.249-.166-.595-.087-.774.177l-1.148 1.691a.574.574 0 0 0-.042.591zm2.602.689c.3-.058.721-.202 1.073-.432l-.736 1.083a.408.408 0 0 1-.244.17.33.33 0 0 1-.262-.044l-1.299-.865c.403.148.979.184 1.468.088zm3.533.325c.455-.669 1.36-.857 2.018-.417l2.157 1.436c.194.129.353.307.462.513a1.455 1.455 0 0 1-.093 1.497l-1.147 1.691c-.456.671-1.36.858-2.018.419l-2.156-1.437a1.392 1.392 0 0 1-.463-.513 1.455 1.455 0 0 1 .092-1.497l1.148-1.692zm-.446 2.778c.04.077.096.14.168.187l2.157 1.438c.248.165.595.086.774-.178l1.148-1.691a.578.578 0 0 0 .042-.591.498.498 0 0 0-.169-.187l-2.156-1.438c-.248-.165-.595-.085-.774.178l-1.148 1.692a.572.572 0 0 0-.042.59zm3.737.164l-.798 1.177a.406.406 0 0 1-.243.17.336.336 0 0 1-.264-.045l-1.33-.887a3.01 3.01 0 0 0 2.635-.415zm2.399.851c.454-.67 1.36-.857 2.017-.419l2.156 1.437c.194.13.355.307.463.513a1.459 1.459 0 0 1-.092 1.498l-1.148 1.691c-.455.67-1.36.858-2.018.419l-2.156-1.437a1.417 1.417 0 0 1-.463-.513 1.454 1.454 0 0 1 .093-1.497l1.148-1.692zm-.446 2.778c.04.076.097.139.168.187l2.156 1.437c.248.165.596.086.774-.178l1.148-1.692a.572.572 0 0 0 .042-.59.512.512 0 0 0-.168-.187l-2.156-1.437c-.249-.166-.597-.086-.775.178l-1.147 1.691a.571.571 0 0 0-.042.591zm3.772.111l-.834 1.229a.4.4 0 0 1-.244.169.327.327 0 0 1-.263-.044l-1.267-.845a3.012 3.012 0 0 0 2.608-.509zm.922-1.979l-2.157-1.438a1.39 1.39 0 0 1-.462-.513 1.455 1.455 0 0 1 .092-1.497l1.148-1.692c.454-.669 1.359-.857 2.018-.418l2.156 1.437c.194.129.354.307.463.512a1.456 1.456 0 0 1-.093 1.498l-1.148 1.692a1.481 1.481 0 0 1-.924.623c-.384.083-.772.01-1.093-.204zm.904-.663a.595.595 0 0 0 .37-.252l1.148-1.692a.573.573 0 0 0 .041-.591.52.52 0 0 0-.168-.187l-2.156-1.437c-.249-.165-.596-.086-.774.178l-1.148 1.692a.574.574 0 0 0-.042.591c.04.076.096.139.168.186l2.156 1.437a.523.523 0 0 0 .405.075zm-.201-.891a2.925 2.925 0 0 0 1.074-.446l-.663.978c-.12.176-.347.233-.507.126l-.977-.651c.353.063.718.062 1.073-.007zm2.166-2.676l-2.156-1.437a1.417 1.417 0 0 1-.463-.513 1.454 1.454 0 0 1 .093-1.497l1.148-1.692a1.49 1.49 0 0 1 .924-.624 1.423 1.423 0 0 1 1.094.205l2.155 1.438a1.4 1.4 0 0 1 .463.513 1.45 1.45 0 0 1-.093 1.496l-1.147 1.693a1.491 1.491 0 0 1-.925.623 1.42 1.42 0 0 1-1.093-.205zm.905-.663a.593.593 0 0 0 .37-.251l1.147-1.691a.576.576 0 0 0 .042-.592.506.506 0 0 0-.169-.187l-2.155-1.436a.524.524 0 0 0-.406-.075.6.6 0 0 0-.369.251L78.53 97.53a.576.576 0 0 0-.042.591c.04.077.097.139.169.187l2.157 1.437a.523.523 0 0 0 .404.074zm-.182-1.041a2.957 2.957 0 0 0 1.237-.563l-.846 1.246a.402.402 0 0 1-.244.17.327.327 0 0 1-.262-.045l-1.35-.899c.469.152.976.186 1.465.091zm2.146-2.525l-2.156-1.437a1.414 1.414 0 0 1-.462-.513 1.454 1.454 0 0 1 .092-1.497l1.148-1.692c.454-.671 1.359-.858 2.018-.419l2.155 1.437c.195.13.355.307.464.513a1.459 1.459 0 0 1-.093 1.498L85.2 95.834c-.454.67-1.359.858-2.018.419zm1.275-.915l1.147-1.691a.576.576 0 0 0 .043-.591.515.515 0 0 0-.169-.187l-2.156-1.437c-.248-.166-.596-.086-.774.177L81.4 93.301a.576.576 0 0 0-.042.591.52.52 0 0 0 .168.187l2.156 1.437c.249.165.596.086.775-.178zm-.523-.771a2.927 2.927 0 0 0 1.153-.5l-.79 1.165c-.119.175-.347.232-.507.125l-1.322-.881c.47.152.977.186 1.466.091zm-2.932-11.893l2.156 1.437c.194.129.354.306.463.512a1.454 1.454 0 0 1-.093 1.497l-1.147 1.692c-.455.67-1.36.857-2.018.419l-2.156-1.437a1.4 1.4 0 0 1-.463-.513 1.454 1.454 0 0 1 .093-1.498l1.147-1.692c.455-.669 1.36-.856 2.018-.417zm-2.464 3.196a.49.49 0 0 0 .169.187l2.156 1.437c.248.166.595.086.773-.176l1.149-1.693a.578.578 0 0 0 .042-.591.523.523 0 0 0-.169-.187l-2.156-1.437c-.248-.166-.596-.085-.775.177l-1.147 1.692a.576.576 0 0 0-.042.591zm3.965-.173l-1.026 1.513c-.12.176-.347.232-.507.125l-1.661-1.107a2.994 2.994 0 0 0 3.194-.531zM73.295 79.3c.219-.323.546-.543.924-.624a1.422 1.422 0 0 1 1.094.205l2.156 1.437c.194.13.354.307.462.513.25.472.214 1.046-.092 1.498l-1.148 1.691c-.454.67-1.359.857-2.018.418l-2.155-1.436a1.4 1.4 0 0 1-.463-.513 1.457 1.457 0 0 1 .092-1.497l1.148-1.692zm-.446 2.778c.04.076.097.139.168.187l2.156 1.437c.249.166.596.086.775-.177l1.147-1.692a.576.576 0 0 0 .043-.591.524.524 0 0 0-.169-.187l-2.156-1.437a.522.522 0 0 0-.405-.074.598.598 0 0 0-.369.251l-1.149 1.692a.576.576 0 0 0-.041.591zm2.576.676a2.935 2.935 0 0 0 1.153-.501l-.79 1.165c-.12.176-.347.232-.507.126l-1.319-.88a2.96 2.96 0 0 0 1.463.09zm-4.999.774c.218-.32.546-.542.924-.623a1.424 1.424 0 0 1 1.093.206l2.156 1.437c.195.13.355.307.463.512a1.454 1.454 0 0 1-.093 1.497l-1.148 1.693a1.486 1.486 0 0 1-.923.623c-.384.082-.773.01-1.094-.205l-2.156-1.437a1.4 1.4 0 0 1-.463-.513 1.456 1.456 0 0 1 .093-1.498l1.148-1.692zm-.446 2.779a.495.495 0 0 0 .168.187l2.155 1.437a.53.53 0 0 0 .406.075.597.597 0 0 0 .369-.251l1.148-1.692a.578.578 0 0 0 .042-.592.488.488 0 0 0-.169-.186l-2.156-1.437a.526.526 0 0 0-.405-.075.595.595 0 0 0-.369.251l-1.148 1.692a.574.574 0 0 0-.041.591zm2.538.732a2.929 2.929 0 0 0 1.152-.5l-.752 1.108c-.119.176-.347.232-.506.125l-1.147-.763c.407.098.837.11 1.253.03zm-4.962.719a1.49 1.49 0 0 1 .924-.623c.384-.082.773-.01 1.094.205l2.156 1.437c.194.13.355.307.463.513a1.457 1.457 0 0 1-.093 1.497l-1.148 1.692c-.454.669-1.359.857-2.018.419l-2.155-1.438a1.4 1.4 0 0 1-.464-.512 1.459 1.459 0 0 1 .094-1.498l1.147-1.692zm-.447 2.778c.041.077.098.14.169.187l2.157 1.437c.248.167.595.087.774-.177l1.148-1.691a.576.576 0 0 0 .042-.591.498.498 0 0 0-.169-.187l-2.156-1.437a.527.527 0 0 0-.405-.075.596.596 0 0 0-.369.252l-1.148 1.692a.574.574 0 0 0-.043.59zm2.537.723a2.952 2.952 0 0 0 1.157-.494l-.754 1.112a.411.411 0 0 1-.244.17.334.334 0 0 1-.263-.045l-1.15-.766c.404.096.83.105 1.254.023zm-3.581 5.868l-2.156-1.438a1.406 1.406 0 0 1-.463-.512 1.454 1.454 0 0 1 .093-1.497l1.148-1.692c.454-.67 1.359-.857 2.018-.419l2.155 1.437a1.4 1.4 0 0 1 .463.513 1.457 1.457 0 0 1-.092 1.497l-1.148 1.692c-.454.67-1.36.858-2.018.419zm2.464-3.197a.506.506 0 0 0-.169-.187l-2.155-1.438c-.249-.164-.596-.085-.775.179l-1.147 1.691a.576.576 0 0 0-.043.591c.04.076.097.139.169.187l2.156 1.437c.248.165.596.086.774-.177l1.148-1.692a.574.574 0 0 0 .042-.591zm-1.856 2.302l-1.303-.869A3.02 3.02 0 0 0 67.93 95l-.751 1.106c-.119.176-.346.232-.506.126zm7.099 4.269a1.49 1.49 0 0 1-.924.623 1.422 1.422 0 0 1-1.094-.205l-2.156-1.437a1.417 1.417 0 0 1-.463-.513 1.455 1.455 0 0 1 .094-1.497l1.147-1.692c.455-.669 1.359-.857 2.018-.418l2.156 1.437c.194.129.354.306.463.512a1.457 1.457 0 0 1-.093 1.497l-1.148 1.693zm.446-2.779a.485.485 0 0 0-.168-.186l-2.156-1.438c-.248-.165-.596-.085-.774.178l-1.148 1.691a.576.576 0 0 0-.043.591.516.516 0 0 0 .169.187l2.156 1.438a.532.532 0 0 0 .406.074.597.597 0 0 0 .369-.252l1.147-1.691a.576.576 0 0 0 .042-.592zm-1.857 2.302l-1.13-.754c.802.19 1.666.035 2.348-.42l-.711 1.049c-.118.175-.346.232-.507.125zm2.976-9.001a1.377 1.377 0 0 1-.462-.514 1.455 1.455 0 0 1 .092-1.496l1.148-1.692c.218-.322.546-.543.924-.624a1.423 1.423 0 0 1 1.094.206l2.156 1.437c.194.13.354.307.462.513.25.472.214 1.046-.092 1.497l-1.149 1.691c-.454.67-1.359.858-2.017.419l-2.156-1.437zm3.431.523l1.147-1.692a.572.572 0 0 0 .042-.59.498.498 0 0 0-.169-.187l-2.155-1.437a.534.534 0 0 0-.406-.075.601.601 0 0 0-.369.252l-1.148 1.692a.574.574 0 0 0-.042.59c.04.076.097.14.169.187l2.156 1.437c.248.166.596.087.775-.177zm.754-1.455l-.915 1.348a.398.398 0 0 1-.244.17.332.332 0 0 1-.262-.044l-1.388-.924c.959.305 2.04.093 2.809-.55zm-2.881 6.18c-.454.669-1.359.857-2.017.419l-2.157-1.437a1.414 1.414 0 0 1-.462-.513 1.456 1.456 0 0 1 .092-1.498l1.148-1.691c.455-.67 1.36-.857 2.018-.419l2.156 1.437a1.4 1.4 0 0 1 .463.513 1.457 1.457 0 0 1-.093 1.498l-1.148 1.691zm.447-2.778a.506.506 0 0 0-.169-.187l-2.156-1.437c-.248-.166-.596-.086-.774.178l-1.148 1.691a.571.571 0 0 0-.041.591c.04.076.096.139.168.187l2.155 1.437c.249.166.596.086.775-.177l1.148-1.692a.576.576 0 0 0 .042-.591zm-1.857 2.301l-1.267-.844a3.012 3.012 0 0 0 2.608-.51l-.834 1.229c-.119.176-.347.232-.507.125zm10.821-3.771l-2.156-1.437a1.406 1.406 0 0 1-.463-.512 1.459 1.459 0 0 1 .093-1.498l1.148-1.692a1.49 1.49 0 0 1 .924-.624 1.416 1.416 0 0 1 1.093.206l2.156 1.436c.194.13.354.307.463.513a1.456 1.456 0 0 1-.093 1.498l-1.148 1.691a1.483 1.483 0 0 1-.923.624c-.384.082-.772.01-1.094-.205zm.905-.663a.595.595 0 0 0 .369-.251l1.148-1.691a.576.576 0 0 0 .042-.591.489.489 0 0 0-.168-.187l-2.157-1.438a.529.529 0 0 0-.404-.074.598.598 0 0 0-.37.251l-1.148 1.692a.576.576 0 0 0-.042.591c.04.077.097.139.169.187l2.156 1.437a.522.522 0 0 0 .405.074zm-.182-1.041a2.934 2.934 0 0 0 1.237-.564l-.846 1.247c-.119.176-.347.233-.506.126l-1.351-.9c.47.151.977.186 1.466.091z" fill="#FFF" opacity=".6"/></svg>