
<svg version="1.1" xmlns="http://www.w3.org/2000/svg" xmlns:xlink="http://www.w3.org/1999/xlink" width="18" height="18" viewBox="0 0 18 18">
<path id="icon-calendar" d="M18.000,18.000 L-0.000,18.000 L-0.000,2.000 L4.000,2.000 L4.000,-0.000 L6.000,-0.000 L6.000,2.000 L12.000,2.000 L12.000,-0.000 L14.000,-0.000 L14.000,2.000 L18.000,2.000 L18.000,18.000 zM16.000,6.000 L2.000,6.000 L2.000,16.000 L16.000,16.000 L16.000,6.000 zM6.000,10.000 L4.000,10.000 L4.000,8.000 L6.000,8.000 L6.000,10.000 zM6.000,14.000 L4.000,14.000 L4.000,12.000 L6.000,12.000 L6.000,14.000 zM10.000,10.000 L8.000,10.000 L8.000,8.000 L10.000,8.000 L10.000,10.000 zM10.000,14.000 L8.000,14.000 L8.000,12.000 L10.000,12.000 L10.000,14.000 zM14.000,10.000 L12.000,10.000 L12.000,8.000 L14.000,8.000 L14.000,10.000 zM14.000,14.000 L12.000,14.000 L12.000,12.000 L14.000,12.000 L14.000,14.000 z" fill="#B3B3B3" />
</svg>
