
<svg version="1.1" xmlns="http://www.w3.org/2000/svg" xmlns:xlink="http://www.w3.org/1999/xlink" width="25" height="17" viewBox="0 0 25 17">
<path id="icon-card" d="M22.000,17.000 C22.000,17.000 3.000,17.000 3.000,17.000 C1.343,17.000 -0.000,15.657 -0.000,14.000 C-0.000,14.000 -0.000,3.000 -0.000,3.000 C-0.000,1.343 1.343,-0.000 3.000,-0.000 C3.000,-0.000 22.000,-0.000 22.000,-0.000 C23.657,-0.000 25.000,1.343 25.000,3.000 C25.000,3.000 25.000,14.000 25.000,14.000 C25.000,15.657 23.657,17.000 22.000,17.000 zM23.000,2.000 L2.000,2.000 L2.000,4.000 L23.000,4.000 L23.000,2.000 zM23.000,7.000 L2.000,7.000 L2.000,15.000 L23.000,15.000 L23.000,7.000 z" fill="#4D4D4D" />
</svg>
