<svg xmlns="http://www.w3.org/2000/svg" xmlns:xlink="http://www.w3.org/1999/xlink" version="1.1" width="20" height="19" viewBox="0 0 20 19">
<path id="icon-star" d="M10.953,0.588 C10.953,0.588 13.211,5.130 13.211,5.130 C13.368,5.446 13.672,5.665 14.023,5.715 C14.023,5.715 19.074,6.443 19.074,6.443 C19.958,6.571 20.311,7.650 19.671,8.269 C19.671,8.269 16.017,11.804 16.017,11.804 C15.763,12.050 15.647,12.405 15.707,12.751 C15.707,12.751 16.570,17.743 16.570,17.743 C16.721,18.618 15.796,19.285 15.005,18.872 C15.005,18.872 10.488,16.515 10.488,16.515 C10.174,16.351 9.799,16.351 9.485,16.515 C9.485,16.515 4.968,18.872 4.968,18.872 C4.177,19.285 3.252,18.618 3.403,17.743 C3.403,17.743 4.266,12.751 4.266,12.751 C4.326,12.405 4.210,12.050 3.956,11.804 C3.956,11.804 0.301,8.269 0.301,8.269 C-0.339,7.649 0.014,6.570 0.899,6.443 C0.899,6.443 5.949,5.715 5.949,5.715 C6.301,5.665 6.604,5.446 6.761,5.130 C6.761,5.130 9.020,0.588 9.020,0.588 C9.415,-0.208 10.558,-0.208 10.953,0.588 z" fill="#FCCB22"/>
</svg>