<?xml version="1.0" encoding="utf-8"?>
<!-- Generator: Adobe Illustrator 19.0.1, SVG Export Plug-In . SVG Version: 6.00 Build 0)  -->
<svg version="1.1" id="Layer_1" xmlns="http://www.w3.org/2000/svg" xmlns:xlink="http://www.w3.org/1999/xlink" x="0px" y="0px"
	 width="91px" height="91px" viewBox="-917 162 91 91" style="enable-background:new -917 162 91 91;" xml:space="preserve">
<style type="text/css">
	.st0{fill:#2B3B4E;}
	.st1{fill:#324A5E;}
	.st2{fill:#FFFFFF;}
	.st3{fill:#E6E9EE;}
	.st4{fill:#FF7058;}
</style>
<rect x="-865.8" y="204.7" transform="matrix(-0.7071 0.7071 -0.7071 -0.7071 -1318.4875 974.7194)" class="st0" width="9.4" height="19.2"/>
<circle class="st1" cx="-883.6" cy="191.8" r="29.8"/>
<circle class="st2" cx="-883.6" cy="191.8" r="23"/>
<path class="st3" d="M-851.3,213.9l-10.1,10.1c-0.4,0.4-0.4,1,0,1.3l27.4,27.4c0.4,0.4,1,0.4,1.3,0l10.1-10.1c0.4-0.4,0.4-1,0-1.3
	l-27.4-27.4C-850.4,213.6-851,213.6-851.3,213.9z"/>
<rect x="-855.4" y="225.3" transform="matrix(-0.7071 -0.7071 0.7071 -0.7071 -1602.5361 -197.0176)" class="st4" width="26.7" height="16.2"/>
</svg>