<?xml version="1.0" encoding="UTF-8"?>
<!-- Generator: Adobe Illustrator 19.0.1, SVG Export Plug-In . SVG Version: 6.00 Build 0)  -->
<svg version="1.1" id="Capa_1" xmlns="http://www.w3.org/2000/svg" xmlns:xlink="http://www.w3.org/1999/xlink" x="0px" y="0px" width="26px" height="32.2px" viewBox="-949 191.8 26 32.2" style="enable-background:new -949 191.8 26 32.2;" xml:space="preserve">
<style type="text/css">
	.st0{fill:#C7CAC7;}
	.st1{fill:#4C4C4F;}
	.st2{fill:#546A79;}
</style>
<path class="st0" d="M-926.8,224h-18.3c-2.1,0-3.9-1.7-3.9-3.9V208c0-2.1,1.7-3.9,3.9-3.9h18.3c2.1,0,3.9,1.7,3.9,3.9v12.1  C-923,222.3-924.7,224-926.8,224z"/>
<path class="st0" d="M-926.8,204.2h-9.1V224h9.1c2.1,0,3.9-1.7,3.9-3.9V208C-923,205.9-924.7,204.2-926.8,204.2z"/>
<path class="st1" d="M-936,216.6L-936,216.6c-1,0-1.9-0.8-1.9-1.9V211c0-1,0.8-1.9,1.9-1.9l0,0c1,0,1.9,0.8,1.9,1.9v3.7  C-934.1,215.7-935,216.6-936,216.6z"/>
<path class="st2" d="M-945.1,204.2h2.3v-4c0-3.2,3.1-5.9,6.8-5.9c3.8,0,6.8,2.6,6.8,5.9v4h2.3h0.1v-4c0-4.6-4.2-8.4-9.3-8.4  c-5.1,0-9.3,3.8-9.3,8.4v4C-945.2,204.2-945.2,204.2-945.1,204.2z"/>
</svg>