
<svg version="1.1" xmlns="http://www.w3.org/2000/svg" xmlns:xlink="http://www.w3.org/1999/xlink" width="16" height="8" viewBox="0 0 8 4">
<path id="icon-arrow" d="M3.916,3.967 C3.916,3.967 7.250,0.223 7.250,0.223 C7.286,0.184 7.289,0.133 7.261,0.090 C7.232,0.048 7.175,0.021 7.113,0.021 C7.113,0.021 0.445,0.021 0.445,0.021 C0.383,0.021 0.326,0.048 0.298,0.090 C0.285,0.109 0.279,0.130 0.279,0.150 C0.279,0.176 0.289,0.202 0.308,0.223 C0.308,0.223 3.642,3.967 3.642,3.967 C3.673,4.001 3.724,4.022 3.779,4.022 C3.834,4.022 3.885,4.001 3.916,3.967 z" fill="#ff8065" />
</svg>