<svg version="1.1" id="Шар_1" xmlns="http://www.w3.org/2000/svg" xmlns:xlink="http://www.w3.org/1999/xlink" x="0px" y="0px" width="53px" height="52.012px" viewBox="0 0 53 52.012" style="enable-background:new 0 0 53 52.012;" xml:space="preserve">
<path style="fill-rule:evenodd;clip-rule:evenodd;fill:#ABC1D6;" d="M51.514,51.994l-0.706-1.981  c-0.594-0.616-1.296-1.117-2.11-1.532c-4.064-2.079-8.283-2.353-12.539-3.981c-0.316-0.123-0.698-0.37-0.827-0.646  c-0.347-0.765-0.588-1.578-0.835-2.384c-0.159-0.518-0.296-1.001-0.858-1.248c-0.15-0.059-0.291-0.367-0.291-0.561  c0.026-1.864-0.406-3.83,0.981-5.458c0.047-0.045,0.062-0.108,0.094-0.173c0.747-1.634,0.882-3.519,1.924-5.036  c0.025-0.028,0.031-0.082,0.04-0.125c0.118-1.159,0.241-2.326,0.341-3.486c0.012-0.145-0.115-0.397-0.235-0.442  c-0.579-0.207-0.55-0.659-0.541-1.124c0-2.265,0-2.597-0.009-4.868c0-1.318-0.385-2.502-1.387-3.391  c-1.138-1.014-2.305-2.004-3.469-2.994c-0.564-0.477-0.611-0.842-0.085-1.361c0.232-0.242,0.529-0.401,0.802-0.601  c-0.028-0.034-0.047-0.077-0.073-0.116c3.625,1.893,6.111,5.679,6.111,10.042l0.009,2.985c-0.614,0.495-1.043,1.59-1.043,2.866  c0,0.908,0.219,1.721,0.562,2.293l-0.803,4.007c-0.367,0.196-0.623,0.571-0.623,1.016c0,0.645,0.523,1.168,1.167,1.168  c0.647,0,1.17-0.524,1.17-1.168c0-0.281-0.113-0.528-0.279-0.728l0.685-3.458c0.923-0.104,1.658-1.459,1.658-3.131  c0-1.271-0.426-2.361-1.036-2.857V20.53c0-7.05-5.742-12.789-12.804-12.789c-7.061,0-12.804,5.737-12.804,12.789v2.993  c-0.61,0.498-1.035,1.588-1.035,2.858c0,1.74,0.79,3.152,1.768,3.152c0.975,0,1.768-1.411,1.768-3.152  c0-1.271-0.426-2.361-1.036-2.857V20.53c0-6.245,5.086-11.325,11.337-11.325c1.758,0,3.416,0.413,4.902,1.129  c-0.281-0.01-0.561-0.025-0.831,0.014c-1.293,0.226-2.593,0.397-3.862,0.699c-2.423,0.558-4.771,1.32-6.735,2.944  c-1.347,1.107-2.421,2.392-2.558,4.213c-0.067,0.969-0.059,1.923-0.067,2.878c-0.012,1.549,0.013,1.174-0.021,2.728  c-0.006,0.26-0.147,0.682-0.326,0.734c-0.626,0.194-0.647,0.597-0.563,1.129c0.062,0.369,0.017,0.735,0.098,1.096  c0.212,0.976,0.449,1.954,0.729,2.908c0.211,0.702,0.617,1.39,0.729,2.107c0.224,1.449,0.767,2.713,1.744,3.81  c0.16,0.183,0.285,0.487,0.274,0.724c-0.084,1.117-0.2,2.231-0.347,3.341c-0.035,0.217-0.259,0.53-0.444,0.578  c-0.748,0.157-0.858,0.731-1.04,1.313c-0.226,0.754-0.483,1.523-0.775,2.254c-0.095,0.241-0.322,0.477-0.556,0.574  C15.53,44.956,5.824,47.842,4.42,48.583c-0.822,0.443-1.588,0.934-2.226,1.544l-0.687,1.885C0.596,51.28,0,50.171,0,48.912V3.993  C0,1.788,1.791,0,4,0h45c2.209,0,4,1.788,4,3.993v44.919C53,50.161,52.414,51.262,51.514,51.994z"/>
</svg>