
<svg version="1.1" xmlns="http://www.w3.org/2000/svg" xmlns:xlink="http://www.w3.org/1999/xlink" width="19" height="20" viewBox="0 0 19 20">
<path id="icon-paypal" d="M18.351,8.851 C18.015,10.437 17.216,11.781 16.041,12.738 C14.866,13.694 13.392,14.199 11.780,14.199 C11.780,14.199 8.447,14.199 8.447,14.199 C8.447,14.199 7.448,18.917 7.448,18.917 C7.363,19.315 7.014,19.600 6.610,19.600 C6.610,19.600 3.700,19.600 3.700,19.600 C3.441,19.600 3.196,19.482 3.033,19.278 C2.871,19.075 2.808,18.808 2.863,18.553 C2.863,18.553 3.077,17.562 3.077,17.562 C3.077,17.562 4.267,17.562 4.267,17.562 C5.071,17.562 5.775,16.987 5.943,16.195 C5.943,16.195 6.798,12.161 6.798,12.161 C6.798,12.161 9.438,12.161 9.438,12.161 C11.248,12.161 12.908,11.589 14.237,10.508 C15.567,9.425 16.469,7.911 16.847,6.130 C16.985,5.477 17.038,4.861 17.007,4.283 C17.238,4.465 17.447,4.669 17.627,4.893 C18.447,5.915 18.691,7.247 18.351,8.851 zM13.698,9.836 C12.523,10.792 11.050,11.297 9.438,11.297 C9.438,11.297 6.105,11.297 6.105,11.297 C6.105,11.297 5.105,16.015 5.105,16.015 C5.021,16.413 4.672,16.698 4.268,16.698 C4.268,16.698 1.358,16.698 1.358,16.698 C1.099,16.698 0.853,16.580 0.691,16.377 C0.528,16.173 0.466,15.906 0.521,15.651 C0.521,15.651 3.671,1.080 3.671,1.080 C3.757,0.683 4.105,0.400 4.508,0.400 C4.508,0.400 11.770,0.400 11.770,0.400 C13.150,0.400 14.497,1.010 15.285,1.991 C16.105,3.014 16.349,4.345 16.009,5.949 C15.673,7.535 14.874,8.879 13.698,9.836 zM11.376,4.342 C11.075,3.946 10.594,3.719 10.057,3.719 C10.057,3.719 7.772,3.719 7.772,3.719 L6.772,8.178 C6.772,8.178 8.962,8.178 8.962,8.178 C10.143,8.178 11.338,7.183 11.626,5.960 C11.628,5.953 11.630,5.945 11.632,5.938 C11.788,5.344 11.695,4.763 11.376,4.342 z" fill="#4D4D4D" />
</svg>
