
<svg version="1.1" xmlns="http://www.w3.org/2000/svg" xmlns:xlink="http://www.w3.org/1999/xlink" width="18" height="18" viewBox="0 0 18 18">
<g id="upload">
<path id="upload" d="M12.000,14.000 L12.000,12.000 L10.000,12.000 L10.000,18.000 L8.000,18.000 L8.000,12.000 L6.000,12.000 L6.000,14.000 L-0.000,14.000 L-0.000,3.000 L3.000,-0.000 L18.000,-0.000 L18.000,14.000 L12.000,14.000 zM4.000,2.000 L2.000,4.000 L4.000,4.000 L4.000,2.000 zM16.000,2.000 L6.000,2.000 L6.000,6.000 L2.000,6.000 L2.000,12.000 L8.000,12.000 L8.000,10.000 L10.000,10.000 L10.000,12.000 L16.000,12.000 L16.000,2.000 zM9.000,6.000 L12.000,10.000 L6.000,10.000 L9.000,6.000 z" fill="#FFFFFF" />
</g>
</svg>
